<svg fill="#000000" xmlns="http://www.w3.org/2000/svg" xmlns:xlink="http://www.w3.org/1999/xlink" version="1.1" x="0px" y="0px" viewBox="0 0 144.083 144" enable-background="new 0 0 144.083 144" xml:space="preserve"><path d="M82.959,93.465c-0.08-0.008-8.094-1.031-8.094-5.541h-0.033V74.416h7.961v-3h-7.961V57.908h0.033  c0-4.561,8.016-5.532,8.096-5.541l-0.168-1.491l-0.168-1.491c-0.336,0.038-6.43,0.771-9.293,4.338  c-2.864-3.566-8.958-4.3-9.293-4.338l-0.334,2.981c0.081,0.009,8.094,1.031,8.094,5.541h0.033v13.508h-7.96v3h7.96v13.508h-0.033  c0,4.562-8.015,5.533-8.096,5.542l0.169,1.49l0.167,1.491c0.336-0.038,6.43-0.772,9.293-4.338c2.863,3.565,8.957,4.3,9.293,4.338  L82.959,93.465z"/><path d="M109.936,109.748h-4.5v3h6c0.828,0,1.5-0.672,1.5-1.5v-6h-3V109.748z"/><rect x="79.571" y="109.748" width="12.932" height="3"/><rect x="53.704" y="109.748" width="12.934" height="3"/><path d="M36.271,105.248h-3v6c0,0.828,0.672,1.5,1.5,1.5h6v-3h-4.5V105.248z"/><rect x="33.271" y="53.516" width="3" height="12.933"/><rect x="33.271" y="79.381" width="3" height="12.934"/><path d="M33.271,34.583v6h3v-4.5h4.5v-3h-6C33.943,33.083,33.271,33.754,33.271,34.583z"/><rect x="79.569" y="33.083" width="12.934" height="3"/><rect x="53.704" y="33.083" width="12.933" height="3"/><path d="M111.436,33.083h-6v3h4.5v4.5h3v-6C112.936,33.754,112.264,33.083,111.436,33.083z"/><rect x="109.936" y="79.382" width="3" height="12.933"/><rect x="109.936" y="53.516" width="3" height="12.933"/></svg>
